<svg width="35" height="38" viewBox="0 0 35 38" fill="none" xmlns="http://www.w3.org/2000/svg">
<g filter="url(#filter0_d)">
<path fill-rule="evenodd" clip-rule="evenodd" d="M16.3994 27.938C14.2612 27.6962 12.2711 26.7574 10.7551 25.2755C9.23911 23.7937 8.28719 21.8565 8.05528 19.7815C7.82338 17.7064 8.32524 15.6166 9.47864 13.8542C9.75913 13.4257 10.3448 13.2987 10.7869 13.5707C11.2289 13.8426 11.3598 14.4105 11.0794 14.839C10.1561 16.2497 9.75441 17.9225 9.94003 19.5835C10.1257 21.2444 10.8876 22.795 12.1011 23.9812C13.3145 25.1673 14.9075 25.9187 16.619 26.1123C18.3306 26.3058 20.0592 25.93 21.5216 25.0465C22.984 24.1629 24.0936 22.824 24.6685 21.249C25.2434 19.6741 25.2495 17.9565 24.6859 16.3777C24.1223 14.799 23.0224 13.4526 21.5663 12.5592C20.1102 11.6658 18.3844 11.2784 16.6715 11.4604C16.1511 11.5157 15.683 11.1516 15.6259 10.647C15.5689 10.1425 15.9445 9.68862 16.4649 9.63332C18.6048 9.40591 20.761 9.88991 22.58 11.006C24.3991 12.1221 25.7733 13.8042 26.4774 15.7765C27.1816 17.7489 27.1739 19.8947 26.4557 21.8623C25.7374 23.8299 24.3512 25.5026 22.5242 26.6064C20.6972 27.7103 18.5377 28.1798 16.3994 27.938Z" fill="url(#paint0_linear)"/>
<path fill-rule="evenodd" clip-rule="evenodd" d="M19.0972 7.56888C19.4674 7.20998 19.4674 6.62808 19.0972 6.26918C18.727 5.91027 18.1269 5.91027 17.7567 6.26918L13.9651 9.9453C13.6875 10.2145 13.6181 10.6091 13.7569 10.941C13.8032 11.0516 13.8726 11.1553 13.9651 11.245M13.9664 11.2462L17.7567 14.9211C18.1269 15.28 18.727 15.28 19.0972 14.9211C19.4674 14.5622 19.4674 13.9803 19.0972 13.6214L15.9759 10.5952L19.0972 7.56888" fill="url(#paint1_linear)"/>
</g>
<defs>
<filter id="filter0_d" x="-6.00002" y="-4" width="46" height="46" filterUnits="userSpaceOnUse" color-interpolation-filters="sRGB">
<feFlood flood-opacity="0" result="BackgroundImageFix"/>
<feColorMatrix in="SourceAlpha" type="matrix" values="0 0 0 0 0 0 0 0 0 0 0 0 0 0 0 0 0 0 127 0"/>
<feOffset dy="2"/>
<feGaussianBlur stdDeviation="4"/>
<feColorMatrix type="matrix" values="0 0 0 0 0.411765 0 0 0 0 0.811765 0 0 0 0 0.901961 0 0 0 0.5 0"/>
<feBlend mode="normal" in2="BackgroundImageFix" result="effect1_dropShadow"/>
<feBlend mode="normal" in="SourceGraphic" in2="effect1_dropShadow" result="shape"/>
</filter>
<linearGradient id="paint0_linear" x1="7.99999" y1="27.4264" x2="18.7488" y2="6.08204" gradientUnits="userSpaceOnUse">
<stop stop-color="#1F9CC3"/>
<stop offset="1" stop-color="#69CFE6"/>
</linearGradient>
<linearGradient id="paint1_linear" x1="13.2136" y1="12.4332" x2="20.103" y2="5.32742" gradientUnits="userSpaceOnUse">
<stop stop-color="#3BC995"/>
<stop offset="1" stop-color="#66F3C2"/>
</linearGradient>
</defs>
</svg>
