<svg width="35" height="38" viewBox="0 0 35 38" fill="none" xmlns="http://www.w3.org/2000/svg">
<defs>
<filter id="filter0_d" x="-6.00002" y="-4" width="46" height="46" filterUnits="userSpaceOnUse" color-interpolation-filters="sRGB">
<feFlood flood-opacity="0" result="BackgroundImageFix"/>
<feColorMatrix in="SourceAlpha" type="matrix" values="0 0 0 0 0 0 0 0 0 0 0 0 0 0 0 0 0 0 127 0"/>
<feOffset dy="2"/>
<feGaussianBlur stdDeviation="4"/>
<feColorMatrix type="matrix" values="0 0 0 0 0.411765 0 0 0 0 0.811765 0 0 0 0 0.901961 0 0 0 0.5 0"/>
<feBlend mode="normal" in2="BackgroundImageFix" result="effect1_dropShadow"/>
<feBlend mode="normal" in="SourceGraphic" in2="effect1_dropShadow" result="shape"/>
</filter>
<linearGradient id="paint0_linear" x1="11" y1="27" x2="24" y2="6" gradientUnits="userSpaceOnUse">
<stop stop-color="#1F9CC3"/>
<stop offset="1" stop-color="#69CFE6"/>
</linearGradient>
<linearGradient id="paint1_linear" x1="11" y1="27" x2="24" y2="6" gradientUnits="userSpaceOnUse">
<stop stop-color="#1F9CC3"/>
<stop offset="1" stop-color="#69CFE6"/>
</linearGradient>
<linearGradient id="paint2_linear" x1="7.90741" y1="18.8501" x2="26.9074" y2="5.8501" gradientUnits="userSpaceOnUse">
<stop stop-color="#3BC995"/>
<stop offset="1" stop-color="#66F3C2"/>
</linearGradient>
<linearGradient id="paint3_linear" x1="7.90741" y1="18.8501" x2="26.9074" y2="5.8501" gradientUnits="userSpaceOnUse">
<stop stop-color="#3BC995"/>
<stop offset="1" stop-color="#66F3C2"/>
</linearGradient>
<linearGradient id="paint4_linear" x1="7.90741" y1="18.8501" x2="26.9074" y2="5.8501" gradientUnits="userSpaceOnUse">
<stop stop-color="#3BC995"/>
<stop offset="1" stop-color="#66F3C2"/>
</linearGradient>
<linearGradient id="paint5_linear" x1="7.90741" y1="18.8501" x2="26.9074" y2="5.8501" gradientUnits="userSpaceOnUse">
<stop stop-color="#3BC995"/>
<stop offset="1" stop-color="#66F3C2"/>
</linearGradient>
</defs>
<g filter="url(#filter0_d)">
<path fill-rule="evenodd" clip-rule="evenodd" d="M17.3502 7.8C14.808 7.8 12.7502 9.85009 12.7502 12.3444C12.7502 14.2158 13.8893 15.8769 15.445 16.511C15.7838 16.6491 16.0053 16.9786 16.0053 17.3444V19.0785C16.0053 19.1141 16.0209 19.1574 16.0531 19.1913C16.0831 19.223 16.1063 19.2259 16.1155 19.2259H18.5849C18.594 19.2259 18.6173 19.223 18.6473 19.1913C18.6795 19.1574 18.6951 19.1141 18.6951 19.0785V17.3451C18.6951 16.9882 18.906 16.6644 19.2326 16.5206C20.9256 15.7758 21.9502 14.2106 21.9502 12.3444C21.9502 9.85009 19.8924 7.8 17.3502 7.8ZM10.9502 12.3444C10.9502 8.8388 13.8311 6 17.3502 6C20.8692 6 23.7502 8.8388 23.7502 12.3444C23.7502 14.7197 22.5239 16.7846 20.4951 17.9027V19.0785C20.4951 20.0852 19.6879 21.0259 18.5849 21.0259H16.1155C15.0125 21.0259 14.2053 20.0852 14.2053 19.0785V17.9131C12.252 16.8574 10.9502 14.699 10.9502 12.3444Z" fill="url(#paint0_linear)"/>
<path fill-rule="evenodd" clip-rule="evenodd" d="M20.2233 22.1817C20.3438 22.664 20.0506 23.1526 19.5684 23.2732L15.5684 24.2732C15.0862 24.3937 14.5976 24.1005 14.477 23.6183C14.3565 23.1361 14.6496 22.6475 15.1319 22.5269L19.1319 21.5269C19.6141 21.4063 20.1027 21.6995 20.2233 22.1817ZM20.2233 25.1817C20.3438 25.664 20.0506 26.1526 19.5684 26.2732L15.5684 27.2732C15.0862 27.3937 14.5976 27.1005 14.477 26.6183C14.3565 26.1361 14.6496 25.6475 15.1319 25.5269L19.1319 24.5269C19.6141 24.4063 20.1027 24.6995 20.2233 25.1817Z" fill="url(#paint1_linear)"/>
<path fill-rule="evenodd" clip-rule="evenodd" d="M8.20016 6.37861C8.46056 5.98801 8.9883 5.88246 9.3789 6.14286L10.8789 7.14286C11.2695 7.40326 11.375 7.931 11.1146 8.3216C10.8542 8.7122 10.3265 8.81774 9.93591 8.55735L8.43591 7.55735C8.04531 7.29695 7.93976 6.76921 8.20016 6.37861Z" fill="url(#paint2_linear)"/>
<path fill-rule="evenodd" clip-rule="evenodd" d="M8.14283 18.3216C7.88243 17.931 7.98798 17.4033 8.37858 17.1429L9.87858 16.1429C10.2692 15.8825 10.7969 15.988 11.0573 16.3786C11.3177 16.7692 11.2122 17.2969 10.8216 17.5573L9.32157 18.5573C8.93097 18.8177 8.40323 18.7122 8.14283 18.3216Z" fill="url(#paint3_linear)"/>
<path fill-rule="evenodd" clip-rule="evenodd" d="M26.5631 18.3747C26.3027 18.7653 25.775 18.8709 25.3844 18.6105L23.8844 17.6105C23.4938 17.3501 23.3882 16.8223 23.6486 16.4317C23.909 16.0411 24.4368 15.9356 24.8274 16.196L26.3274 17.196C26.718 17.4564 26.8235 17.9841 26.5631 18.3747Z" fill="url(#paint4_linear)"/>
<path fill-rule="evenodd" clip-rule="evenodd" d="M26.6145 6.3786C26.8749 6.76919 26.7694 7.29693 26.3788 7.55733L24.8788 8.55733C24.4882 8.81773 23.9604 8.71219 23.7 8.32159C23.4396 7.93099 23.5452 7.40325 23.9358 7.14285L25.4358 6.14285C25.8264 5.88245 26.3541 5.988 26.6145 6.3786Z" fill="url(#paint5_linear)"/>
</g>
</svg>
