<svg width="24" height="24" viewBox="0 0 24 24" fill="none" xmlns="http://www.w3.org/2000/svg">
<path fill-rule="evenodd" clip-rule="evenodd" d="M2 21C2 17.134 5.13401 14 9 14H15C18.866 14 22 17.134 22 21V22C22 22.5523 21.5523 23 21 23C20.4477 23 20 22.5523 20 22V21C20 18.2386 17.7614 16 15 16H9C6.23858 16 4 18.2386 4 21V22C4 22.5523 3.55228 23 3 23C2.44772 23 2 22.5523 2 22V21Z" fill="url(#paint0_linear)"/>
<path fill-rule="evenodd" clip-rule="evenodd" d="M12.5 4H11.5C10.1193 4 9 5.11929 9 6.5V7.5C9 8.88071 10.1193 10 11.5 10H12.5C13.8807 10 15 8.88071 15 7.5V6.5C15 5.11929 13.8807 4 12.5 4ZM11.5 2C9.01472 2 7 4.01472 7 6.5V7.5C7 9.98528 9.01472 12 11.5 12H12.5C14.9853 12 17 9.98528 17 7.5V6.5C17 4.01472 14.9853 2 12.5 2H11.5Z" fill="url(#paint1_linear)"/>
<defs>
<linearGradient id="paint0_linear" x1="2" y1="23" x2="22" y2="14" gradientUnits="userSpaceOnUse">
<stop stop-color="#1F9CC3"/>
<stop offset="1" stop-color="#69CFE6"/>
</linearGradient>
<linearGradient id="paint1_linear" x1="7" y1="12" x2="17" y2="2" gradientUnits="userSpaceOnUse">
<stop stop-color="#3BC995"/>
<stop offset="1" stop-color="#66F3C2"/>
</linearGradient>
</defs>
</svg>
