<svg width="24" height="24" viewBox="0 0 24 24" fill="none" xmlns="http://www.w3.org/2000/svg">
<path fill-rule="evenodd" clip-rule="evenodd" d="M6.99987 5.51677C8.47991 4.52784 10.22 4 12 4H12.003C14.0512 4.00612 16.0259 4.70839 17.6106 5.97521L18.2929 5.29289C18.6834 4.90237 19.3166 4.90237 19.7071 5.29289C20.0976 5.68342 20.0976 6.31658 19.7071 6.70711L19.0248 7.38942C20.2916 8.97411 20.9939 10.9488 21 12.997L21 13C21 14.78 20.4722 16.5201 19.4832 18.0001C18.4943 19.4802 17.0887 20.6337 15.4441 21.3149C13.7996 21.9961 11.99 22.1743 10.2442 21.8271C8.49836 21.4798 6.89471 20.6226 5.63604 19.364C4.37736 18.1053 3.5202 16.5016 3.17294 14.7558C2.82567 13.01 3.0039 11.2004 3.68509 9.55585C4.36628 7.91131 5.51983 6.50571 6.99987 5.51677ZM11.9985 6C10.6145 6.0003 9.26173 6.41082 8.11101 7.17971C6.95987 7.94888 6.06266 9.04213 5.53285 10.3212C5.00303 11.6003 4.86441 13.0078 5.13451 14.3656C5.4046 15.7235 6.07129 16.9708 7.05025 17.9497C8.02922 18.9287 9.2765 19.5954 10.6344 19.8655C11.9922 20.1356 13.3997 19.997 14.6788 19.4672C15.9579 18.9373 17.0511 18.0401 17.8203 16.889C18.5891 15.7383 18.9997 14.3856 19 13.0017C18.9941 11.1466 18.2546 9.36906 16.9428 8.05725C15.631 6.74548 13.8536 6.00593 11.9985 6Z" fill="url(#paint0_linear)"/>
<path d="M9 2C9 1.44772 9.44771 1 10 1H14C14.5523 1 15 1.44772 15 2C15 2.55228 14.5523 3 14 3H10C9.44771 3 9 2.55228 9 2Z" fill="url(#paint1_linear)"/>
<path d="M11 9C11 8.44771 11.4477 8 12 8C12.5523 8 13 8.44771 13 9V13.7858L14.9071 15.6929C15.2976 16.0834 15.2976 16.7166 14.9071 17.1071C14.5166 17.4976 13.8834 17.4976 13.4929 17.1071L11.2929 14.9071C11.1054 14.7196 11 14.4652 11 14.2V9Z" fill="url(#paint2_linear)"/>
<defs>
<linearGradient id="paint0_linear" x1="3" y1="22" x2="21" y2="4" gradientUnits="userSpaceOnUse">
<stop stop-color="#1F9CC3"/>
<stop offset="1" stop-color="#69CFE6"/>
</linearGradient>
<linearGradient id="paint1_linear" x1="9" y1="3" x2="15" y2="1" gradientUnits="userSpaceOnUse">
<stop stop-color="#1F9CC3"/>
<stop offset="1" stop-color="#69CFE6"/>
</linearGradient>
<linearGradient id="paint2_linear" x1="9" y1="16" x2="16.5" y2="9" gradientUnits="userSpaceOnUse">
<stop stop-color="#3BC995"/>
<stop offset="1" stop-color="#66F3C2"/>
</linearGradient>
</defs>
</svg>
