<svg width="37" height="37" viewBox="0 0 37 37" fill="none" xmlns="http://www.w3.org/2000/svg">
<g filter="url(#filter0_d)">
<path fill-rule="evenodd" clip-rule="evenodd" d="M27.5018 26.3982L14.9531 26.3982C14.4581 26.3982 14.0568 25.9969 14.0568 25.5018C14.0568 25.0068 14.4581 24.6055 14.9531 24.6055L27.5018 24.6055C27.9969 24.6055 28.3982 25.0068 28.3982 25.5018C28.3982 25.9969 27.9969 26.3982 27.5018 26.3982Z" fill="url(#paint0_linear)"/>
<path fill-rule="evenodd" clip-rule="evenodd" d="M18.1435 11.4975L21.4392 8.20181C21.7083 7.93273 22.1446 7.93273 22.4136 8.2018L26.1947 11.9828C26.4637 12.2519 26.4637 12.6881 26.1947 12.9572L22.8989 16.2529L18.1435 11.4975ZM17.0829 12.5582L10.2018 19.4393C9.93272 19.7083 9.93272 20.1446 10.2018 20.4137L13.9828 24.1947C14.2519 24.4637 14.6881 24.4637 14.9572 24.1947L21.8383 17.3136L17.0829 12.5582ZM27.6089 10.5686L23.8279 6.78759C22.7777 5.73747 21.0752 5.73747 20.025 6.78759L8.78758 18.025C7.73746 19.0752 7.73745 20.7777 8.78757 21.8279L12.5686 25.6089C13.6187 26.659 15.3213 26.659 16.3714 25.6089L27.6089 14.3714C28.659 13.3213 28.659 11.6187 27.6089 10.5686Z" fill="url(#paint1_linear)"/>
</g>
<defs>
<filter id="filter0_d" x="-5.00002" y="-5" width="46" height="46" filterUnits="userSpaceOnUse" color-interpolation-filters="sRGB">
<feFlood flood-opacity="0" result="BackgroundImageFix"/>
<feColorMatrix in="SourceAlpha" type="matrix" values="0 0 0 0 0 0 0 0 0 0 0 0 0 0 0 0 0 0 127 0"/>
<feOffset dy="2"/>
<feGaussianBlur stdDeviation="4"/>
<feColorMatrix type="matrix" values="0 0 0 0 0.411765 0 0 0 0 0.811765 0 0 0 0 0.901961 0 0 0 0.5 0"/>
<feBlend mode="normal" in2="BackgroundImageFix" result="effect1_dropShadow"/>
<feBlend mode="normal" in="SourceGraphic" in2="effect1_dropShadow" result="shape"/>
</filter>
<linearGradient id="paint0_linear" x1="14.0568" y1="25.5018" x2="28.3982" y2="25.5018" gradientUnits="userSpaceOnUse">
<stop stop-color="#3BC995"/>
<stop offset="1" stop-color="#66F3C2"/>
</linearGradient>
<linearGradient id="paint1_linear" x1="7.78247" y1="26.3982" x2="28.3982" y2="5.78247" gradientUnits="userSpaceOnUse">
<stop stop-color="#1F9CC3"/>
<stop offset="1" stop-color="#69CFE6"/>
</linearGradient>
</defs>
</svg>
