<svg width="24" height="24" viewBox="0 0 24 24" fill="none" xmlns="http://www.w3.org/2000/svg">
<path fill-rule="evenodd" clip-rule="evenodd" d="M11.75 6C11.75 6.46143 11.8281 6.90454 11.9719 7.31689L9.41785 9.01953C8.71002 8.3855 7.77502 8 6.75 8C4.54086 8 2.75 9.79089 2.75 12C2.75 14.2091 4.54086 16 6.75 16C7.77502 16 8.71002 15.6145 9.41785 14.9805L11.9719 16.6831C11.8281 17.0955 11.75 17.5386 11.75 18C11.75 20.2091 13.5409 22 15.75 22C17.9591 22 19.75 20.2091 19.75 18C19.75 15.7909 17.9591 14 15.75 14C14.7249 14 13.79 14.3855 13.0822 15.0195L10.5281 13.3169C10.6719 12.9045 10.75 12.4614 10.75 12C10.75 11.5386 10.6719 11.0955 10.5281 10.6831L13.0822 8.98047C13.79 9.6145 14.7249 10 15.75 10C17.9591 10 19.75 8.20911 19.75 6C19.75 3.79089 17.9591 2 15.75 2C13.5409 2 11.75 3.79089 11.75 6ZM15.75 4C14.6454 4 13.75 4.89539 13.75 6C13.75 6.34399 13.8369 6.66772 13.9898 6.95044C14.0326 6.99426 14.0719 7.0426 14.1071 7.09534C14.142 7.14771 14.1713 7.20227 14.1952 7.25818C14.5619 7.71069 15.1222 8 15.75 8C16.8546 8 17.75 7.10461 17.75 6C17.75 4.89539 16.8546 4 15.75 4ZM13.9898 17.0496C14.0326 17.0057 14.0719 16.9574 14.1071 16.9047C14.142 16.8523 14.1713 16.7977 14.1952 16.7418C14.5619 16.2893 15.1222 16 15.75 16C16.8546 16 17.75 16.8954 17.75 18C17.75 19.1046 16.8546 20 15.75 20C14.6454 20 13.75 19.1046 13.75 18C13.75 17.656 13.8369 17.3323 13.9898 17.0496ZM8.30475 10.7418C7.93808 10.2893 7.37784 10 6.75 10C5.64542 10 4.75 10.8954 4.75 12C4.75 13.1046 5.64542 14 6.75 14C7.37784 14 7.93808 13.7107 8.30475 13.2582C8.32864 13.2023 8.358 13.1477 8.39294 13.0953C8.42813 13.0426 8.46744 12.9943 8.51019 12.9504C8.66315 12.6677 8.75 12.344 8.75 12C8.75 11.656 8.66315 11.3323 8.51019 11.0496C8.46744 11.0057 8.42813 10.9574 8.39294 10.9047C8.358 10.8523 8.32864 10.7977 8.30475 10.7418Z" fill="#66F3C2"/>
</svg>
