<svg width="24" height="24" viewBox="0 0 24 24" fill="none" xmlns="http://www.w3.org/2000/svg">
<path fill-rule="evenodd" clip-rule="evenodd" d="M22 6.16667C22 6.811 21.5025 7.33334 20.8889 7.33334L3.11111 7.33333C2.49746 7.33333 2 6.811 2 6.16667C2 5.52233 2.49746 5 3.11111 5L20.8889 5C21.5025 5 22 5.52234 22 6.16667Z" fill="url(#paint0_linear)"/>
<path fill-rule="evenodd" clip-rule="evenodd" d="M22 12C22 12.6444 21.5025 13.1667 20.8889 13.1667L3.11111 13.1667C2.49746 13.1667 2 12.6444 2 12C2 11.3557 2.49746 10.8334 3.11111 10.8334L20.8889 10.8334C21.5025 10.8334 22 11.3557 22 12Z" fill="url(#paint1_linear)"/>
<path fill-rule="evenodd" clip-rule="evenodd" d="M22 17.8334C22 18.4777 21.5025 19 20.8889 19L3.11111 19C2.49746 19 2 18.4777 2 17.8334C2 17.189 2.49746 16.6667 3.11111 16.6667L20.8889 16.6667C21.5025 16.6667 22 17.189 22 17.8334Z" fill="url(#paint2_linear)"/>
<defs>
<linearGradient id="paint0_linear" x1="2" y1="7.50002" x2="22" y2="4.50003" gradientUnits="userSpaceOnUse">
<stop stop-color="#3BC995"/>
<stop offset="1" stop-color="#66F3C2"/>
</linearGradient>
<linearGradient id="paint1_linear" x1="2" y1="13" x2="22" y2="11" gradientUnits="userSpaceOnUse">
<stop stop-color="#1F9CC3"/>
<stop offset="1" stop-color="#69CFE6"/>
</linearGradient>
<linearGradient id="paint2_linear" x1="2" y1="19" x2="22" y2="16.5" gradientUnits="userSpaceOnUse">
<stop stop-color="#1F9CC3"/>
<stop offset="1" stop-color="#69CFE6"/>
</linearGradient>
</defs>
</svg>
