<svg width="24" height="24" viewBox="0 0 24 24" fill="none" xmlns="http://www.w3.org/2000/svg">
<path fill-rule="evenodd" clip-rule="evenodd" d="M19.5701 19.5701C20.0346 19.1056 20.0346 18.3524 19.5701 17.8879L13.6822 12L19.5701 6.11213C20.0347 5.64759 20.0347 4.89442 19.5701 4.42988C19.1056 3.96534 18.3524 3.96534 17.8879 4.42988L12 10.3178L6.1121 4.42988C5.64756 3.96534 4.89439 3.96534 4.42986 4.42988C3.96532 4.89442 3.96532 5.64759 4.42986 6.11213L10.3177 12L4.42991 17.8879C3.96537 18.3524 3.96537 19.1056 4.42991 19.5701C4.89445 20.0347 5.64762 20.0347 6.11215 19.5701L12 13.6823L17.8878 19.5701C18.3524 20.0347 19.1055 20.0347 19.5701 19.5701Z" fill="#FDFDFD"/>
</svg>
