<svg width="37" height="34" viewBox="0 0 37 34" fill="none" xmlns="http://www.w3.org/2000/svg">
<defs>
<filter id="filter0_d" x="-5.00002" y="-6" width="46" height="46" filterUnits="userSpaceOnUse" color-interpolation-filters="sRGB">
<feFlood flood-opacity="0" result="BackgroundImageFix"/>
<feColorMatrix in="SourceAlpha" type="matrix" values="0 0 0 0 0 0 0 0 0 0 0 0 0 0 0 0 0 0 127 0"/>
<feOffset dy="2"/>
<feGaussianBlur stdDeviation="4"/>
<feColorMatrix type="matrix" values="0 0 0 0 0.411765 0 0 0 0 0.811765 0 0 0 0 0.901961 0 0 0 0.5 0"/>
<feBlend mode="normal" in2="BackgroundImageFix" result="effect1_dropShadow"/>
<feBlend mode="normal" in="SourceGraphic" in2="effect1_dropShadow" result="shape"/>
</filter>
<linearGradient id="paint0_linear" x1="8.88378" y1="23.0057" x2="28.4682" y2="10.6994" gradientUnits="userSpaceOnUse">
<stop stop-color="#1F9CC3"/>
<stop offset="1" stop-color="#69CFE6"/>
</linearGradient>
<linearGradient id="paint1_linear" x1="7.99998" y1="17.6355" x2="14.3086" y2="6.06657" gradientUnits="userSpaceOnUse">
<stop stop-color="#3BC995"/>
<stop offset="1" stop-color="#66F3C2"/>
</linearGradient>
</defs>
<g filter="url(#filter0_d)">
<path d="M22.2941 10.8345H10.6706L9.95101 11.6753L10.6706 12.5161H22.2941C24.7018 12.5161 26.6667 14.506 26.6667 16.9444C26.6667 19.3827 24.7018 21.3726 22.2941 21.3726H9.95106C9.48057 21.3726 9.12083 21.737 9.12083 22.2134C9.12083 22.6898 9.48062 23.0542 9.95106 23.0542H22.2941C25.6151 23.0542 28.3273 20.3075 28.3273 16.9443C28.3273 13.5811 25.6151 10.8345 22.2941 10.8345Z" fill="url(#paint0_linear)"/>
<path d="M13.0507 17.4414C12.8293 17.4414 12.5802 17.3573 12.4142 17.1612L8.20753 12.2844C7.9308 11.9761 7.9308 11.4996 8.20753 11.1913L12.4141 6.2866C12.7185 5.9503 13.2443 5.89424 13.5765 6.20254C13.9086 6.51084 13.9639 7.04332 13.6595 7.37968L9.95104 11.7239L13.6872 16.04C13.9916 16.3763 13.9639 16.9089 13.6042 17.2172C13.4381 17.3854 13.2444 17.4414 13.0507 17.4414Z" fill="url(#paint1_linear)"/>
</g>
</svg>
