<svg width="37" height="37" viewBox="0 0 37 37" fill="none" xmlns="http://www.w3.org/2000/svg">
<defs>
<filter id="filter0_d" x="-5.00002" y="-5" width="46" height="46" filterUnits="userSpaceOnUse" color-interpolation-filters="sRGB">
<feFlood flood-opacity="0" result="BackgroundImageFix"/>
<feColorMatrix in="SourceAlpha" type="matrix" values="0 0 0 0 0 0 0 0 0 0 0 0 0 0 0 0 0 0 127 0"/>
<feOffset dy="2"/>
<feGaussianBlur stdDeviation="4"/>
<feColorMatrix type="matrix" values="0 0 0 0 0.411765 0 0 0 0 0.811765 0 0 0 0 0.901961 0 0 0 0.5 0"/>
<feBlend mode="normal" in2="BackgroundImageFix" result="effect1_dropShadow"/>
<feBlend mode="normal" in="SourceGraphic" in2="effect1_dropShadow" result="shape"/>
</filter>
<linearGradient id="paint0_linear" x1="8.36417" y1="25.7084" x2="13.7348" y2="20.3378" gradientUnits="userSpaceOnUse">
<stop stop-color="#3BC995"/>
<stop offset="1" stop-color="#66F3C2"/>
</linearGradient>
<linearGradient id="paint1_linear" x1="10.7287" y1="23.2817" x2="28.0104" y2="6" gradientUnits="userSpaceOnUse">
<stop stop-color="#1F9CC3"/>
<stop offset="1" stop-color="#69CFE6"/>
</linearGradient>
</defs>
<g filter="url(#filter0_d)">
<path d="M9.27337 26.1151C8.90955 26.1151 8.63668 26.0241 8.36381 25.7513C7.99998 25.3874 7.90903 24.9327 8.09094 24.3869L10.092 17.8381C10.1829 17.6561 10.2739 17.3833 10.5468 17.1104L11.7292 18.3838C11.7292 18.3838 11.7292 18.4748 11.7292 18.3838L10.092 24.0231L15.7313 22.2949L17.0047 23.5683C16.7318 23.8412 16.4589 24.0231 16.277 24.0231L9.72816 26.0241C9.54624 26.0241 9.45529 26.1151 9.27337 26.1151Z" fill="url(#paint0_linear)"/>
<path d="M27.01 7.83286L26.1914 7.01426C25.4638 6.2866 24.3723 5.92278 23.1899 6.01374C22.0984 6.10469 21.0069 6.65043 20.1883 7.46904L10.456 17.2014L11.7294 18.4748L16.9139 23.6593L26.5553 13.9269C27.3739 13.1083 27.9196 12.0169 28.0106 10.9254C28.1925 9.74295 27.8287 8.65147 27.01 7.83286ZM16.9139 21.0215L13.0028 17.1104L19.1878 10.9254L23.008 14.8365L16.9139 21.0215ZM26.2824 10.7435C26.1914 11.4711 25.9186 12.1078 25.2819 12.6536L24.3723 13.5631L20.5521 9.65199L21.4617 8.74243C22.0074 8.19669 22.7351 7.83286 23.3718 7.74191C24.0085 7.65095 24.5542 7.83286 24.9181 8.28765L25.7367 9.10625C26.1005 9.56103 26.2824 10.1068 26.2824 10.7435Z" fill="url(#paint1_linear)"/>
</g>
</svg>
