<svg width="86" height="40" viewBox="0 0 86 40" fill="none" xmlns="http://www.w3.org/2000/svg">
<defs>
<linearGradient id="g1" x1="1.18784e-06" y1="40.0389" x2="84.6142" y2="-2.66483" gradientUnits="userSpaceOnUse">
<stop stop-color="#3BC995"/>
<stop offset="1" stop-color="#66F3C2"/>
</linearGradient>
</defs>
<path d="M0 13.5944L2.82034 11.4397C3.67871 12.85 4.94582 13.5944 6.49905 13.5944C8.13403 13.5944 9.03327 12.5758 9.03327 11.4397C9.03327 10.1077 7.31654 9.67671 5.55893 9.12823C3.31084 8.46223 0.81749 7.63951 0.81749 4.58371C0.81749 2.0372 3.14734 0 6.37642 0C9.03327 0 10.6274 0.979424 11.9762 2.31144L9.40114 4.19194C8.70627 3.17333 7.68441 2.66403 6.37642 2.66403C4.82319 2.66403 4.04658 3.44757 4.04658 4.46617C4.04658 5.75901 5.64068 6.15079 7.43916 6.73844C9.68726 7.44363 12.2624 8.42305 12.2624 11.4789C12.3032 13.9862 10.1778 16.4543 6.53992 16.4543C3.51521 16.4543 1.55323 15.2398 0 13.5944Z" fill="url(#g1)"/>
<path d="M13.7747 10.6953V0.23506H16.8812V10.8912C16.8812 12.4583 18.1074 13.7119 19.7832 13.7119C21.4182 13.7119 22.7262 12.4975 22.7262 10.8912V0.23506H25.8327V10.7345C25.8327 14.4955 23.2576 16.4935 19.8241 16.4935C16.3089 16.4543 13.7747 14.4563 13.7747 10.6953Z" fill="url(#g1)"/>
<path d="M27.713 0.23506H32.25C37.8907 0.23506 41.0789 3.68263 41.0789 8.22716C41.0789 12.7717 37.482 16.2193 32.3726 16.2193H27.713V0.23506ZM30.8194 2.97745V13.4769H32.0456C35.7243 13.4769 38.0133 11.2046 38.0133 8.22716C38.0133 5.17136 36.0513 2.97745 31.923 2.97745H30.8194Z" fill="url(#g1)"/>
<path d="M42.3051 8.22716C42.3051 3.68264 46.0656 0 50.8479 0C55.5893 0 59.3907 3.68264 59.3907 8.22716C59.3907 12.7717 55.5893 16.4543 50.8479 16.4543C46.0656 16.4543 42.3051 12.7717 42.3051 8.22716ZM56.3251 8.22716C56.3251 5.32807 53.9135 2.93827 50.8479 2.93827C47.7823 2.93827 45.3707 5.32807 45.3707 8.22716C45.3707 11.1263 47.7823 13.5161 50.807 13.5161C53.8317 13.5161 56.3251 11.1263 56.3251 8.22716Z" fill="url(#g1)"/>
<path d="M65.7671 8.54058L63.9686 10.6953V16.2584H60.8622V0.23506H63.9686V6.77762L69.4867 0.23506H73.2471L67.9743 6.4642L73.7376 16.2584H70.1815L65.7671 8.54058Z" fill="url(#g1)"/>
<path d="M73.942 10.6953V0.23506H77.0485V10.8912C77.0485 12.4583 78.2747 13.7119 79.9506 13.7119C81.5855 13.7119 82.8935 12.4975 82.8935 10.8912V0.23506H86V10.7345C86 14.4955 83.4249 16.4935 79.9914 16.4935C76.4762 16.4543 73.942 14.4563 73.942 10.6953Z" fill="url(#g1)"/>
<path d="M0.0405483 31.8117C0.0405483 27.0321 3.801 23.5845 8.6242 23.5845C11.7715 23.5845 14.4693 25.1516 15.9407 27.5414L13.2021 29.226C12.2212 27.5414 10.7905 26.5228 8.58332 26.5228C5.39511 26.5228 3.10614 28.8343 3.10614 31.8117C3.10614 34.7108 5.43598 37.0614 8.54245 37.0614C10.8723 37.0614 12.4664 35.8078 13.3656 34.0448L16.186 35.4552C14.7145 38.1584 11.8942 39.9997 8.6242 39.9997C3.47401 40.0389 0.0405483 36.3562 0.0405483 31.8117Z" fill="url(#g1)"/>
<path d="M18.1892 23.8196H28.0808V26.6403H21.2956V30.323H28.0808V33.1829H21.2956V36.9439H28.0808V39.8038H18.1892V23.8196Z" fill="url(#g1)"/>
<path d="M30.6559 23.8196H34.1711L41.4059 34.7108V23.8196H44.5124V39.843H41.2015L33.7624 28.56V39.8038H30.6559V23.8196Z" fill="url(#g1)"/>
<path d="M51.3793 26.6403H46.924V23.7804H58.982V26.6403H54.4858V39.8038H51.3793V26.6403Z" fill="url(#g1)"/>
<path d="M61.3526 23.8196H71.2443V26.6403H64.4591V30.323H71.2443V33.1829H64.4591V36.9439H71.2443V39.8038H61.3526V23.8196Z" fill="url(#g1)"/>
<path d="M73.8194 23.8196H79.1739C83.0979 23.8196 85.4277 26.0919 85.4277 29.3827C85.4277 31.3024 84.4467 33.1045 82.6074 34.0448L85.9591 39.8038H82.403L79.7053 34.9459H76.9258V39.843H73.8194V23.8196ZM78.8878 32.2035C81.4629 32.2035 82.2804 30.8715 82.2804 29.3044C82.2804 27.6589 81.2585 26.6403 78.8878 26.6403H76.9258V32.2427H78.8878V32.2035Z" fill="url(#g1)"/>
</svg>
