<svg width="37" height="40" viewBox="0 0 37 40" fill="none" xmlns="http://www.w3.org/2000/svg">
<g filter="url(#filter0_d)">
<path fill-rule="evenodd" clip-rule="evenodd" d="M17.3593 29.6671C15.0785 29.4092 12.9557 28.4079 11.3387 26.8272C9.72163 25.2465 8.70625 23.1803 8.45889 20.9669C8.21152 18.7535 8.74684 16.5243 9.97714 14.6445C10.2763 14.1874 10.9011 14.0519 11.3726 14.342C11.8441 14.6321 11.9837 15.2378 11.6846 15.695C10.6998 17.1996 10.2713 18.984 10.4693 20.7557C10.6673 22.5274 11.48 24.1813 12.7744 25.4465C14.0687 26.7118 15.7679 27.5133 17.5936 27.7197C19.4192 27.9262 21.263 27.5254 22.823 26.5829C24.3829 25.6404 25.5664 24.2122 26.1797 22.5323C26.7929 20.8523 26.7994 19.0203 26.1982 17.3362C25.5971 15.6522 24.4238 14.2161 22.8706 13.2631C21.3175 12.3102 19.4766 11.8969 17.6495 12.0911C17.0944 12.1501 16.5951 11.7616 16.5343 11.2235C16.4734 10.6853 16.8741 10.2012 17.4292 10.1422C19.7117 9.89961 22.0116 10.4159 23.952 11.6064C25.8923 12.7969 27.3581 14.5911 28.1092 16.6949C28.8602 18.7988 28.8521 21.0876 28.086 23.1864C27.3198 25.2852 25.8413 27.0694 23.8924 28.2469C21.9436 29.4243 19.6401 29.9251 17.3593 29.6671Z" fill="url(#paint0_linear)"/>
<path fill-rule="evenodd" clip-rule="evenodd" d="M20.2372 7.94014C20.632 7.55731 20.632 6.93662 20.2372 6.55379C19.8423 6.17095 19.2021 6.17095 18.8073 6.55379L14.7629 10.475C14.4174 10.81 14.3743 11.3271 14.6334 11.7076C14.6704 11.7619 14.7136 11.8135 14.7629 11.8613M14.7645 11.8629L18.8073 15.7825C19.2021 16.1654 19.8423 16.1654 20.2372 15.7825C20.632 15.3997 20.632 14.779 20.2372 14.3962L16.9078 11.1682L20.2372 7.94014" fill="url(#paint1_linear)"/>
</g>
<defs>
<filter id="filter0_d" x="-6" y="-4" width="48" height="48" filterUnits="userSpaceOnUse" color-interpolation-filters="sRGB">
<feFlood flood-opacity="0" result="BackgroundImageFix"/>
<feColorMatrix in="SourceAlpha" type="matrix" values="0 0 0 0 0 0 0 0 0 0 0 0 0 0 0 0 0 0 127 0"/>
<feOffset dy="2"/>
<feGaussianBlur stdDeviation="4"/>
<feColorMatrix type="matrix" values="0 0 0 0 0.411765 0 0 0 0 0.811765 0 0 0 0 0.901961 0 0 0 0.5 0"/>
<feBlend mode="normal" in2="BackgroundImageFix" result="effect1_dropShadow"/>
<feBlend mode="normal" in="SourceGraphic" in2="effect1_dropShadow" result="shape"/>
</filter>
<linearGradient id="paint0_linear" x1="8.3999" y1="29.1215" x2="19.8653" y2="6.35415" gradientUnits="userSpaceOnUse">
<stop stop-color="#1F9CC3"/>
<stop offset="1" stop-color="#69CFE6"/>
</linearGradient>
<linearGradient id="paint1_linear" x1="13.9613" y1="13.1288" x2="21.31" y2="5.54924" gradientUnits="userSpaceOnUse">
<stop stop-color="#3BC995"/>
<stop offset="1" stop-color="#66F3C2"/>
</linearGradient>
</defs>
</svg>
