<svg width="5" height="20" viewBox="0 0 5 20" fill="none" xmlns="http://www.w3.org/2000/svg">
<path fill-rule="evenodd" clip-rule="evenodd" d="M0 17.5C0 18.8807 1.11929 20 2.5 20C3.88071 20 5 18.8807 5 17.5C5 16.1193 3.88071 15 2.5 15C1.11929 15 0 16.1193 0 17.5ZM0 10C0 11.3807 1.11929 12.5 2.5 12.5C3.88071 12.5 5 11.3807 5 10C5 8.61929 3.88071 7.5 2.5 7.5C1.11929 7.5 0 8.61929 0 10ZM2.5 0C1.11929 0 0 1.11929 0 2.5C0 3.88071 1.11929 5 2.5 5C3.88071 5 5 3.88071 5 2.5C5 1.11929 3.88071 0 2.5 0Z" fill="#66F3C2"/>
</svg>
